<svg width="400" height="580" viewBox="0 0 400 580" fill="none" xmlns="http://www.w3.org/2000/svg">
<path fill-rule="evenodd" clip-rule="evenodd" d="M16 0C7.16344 0 0 7.16345 0 16V564C0 572.837 7.16345 580 16 580H384C392.837 580 400 572.837 400 564V16C400 7.16344 392.837 0 384 0H16ZM282.233 214.593C283.813 215.251 285.246 216.215 286.45 217.43C287.766 218.643 288.815 220.116 289.533 221.755C290.251 223.394 290.622 225.164 290.622 226.954C290.622 228.744 290.251 230.514 289.533 232.153C288.815 233.792 287.766 235.265 286.45 236.478L180.71 342.218C179.506 343.433 178.073 344.397 176.493 345.055C174.914 345.713 173.221 346.051 171.51 346.051C169.799 346.051 168.106 345.713 166.527 345.055C164.947 344.397 163.514 343.433 162.31 342.218L112.55 292.458C111.299 291.25 110.298 289.807 109.605 288.212C108.912 286.618 108.54 284.902 108.51 283.163C108.479 281.424 108.792 279.697 109.43 278.079C110.067 276.461 111.017 274.984 112.226 273.734C113.434 272.483 114.877 271.482 116.471 270.789C118.066 270.096 119.782 269.724 121.521 269.694C123.26 269.663 124.987 269.976 126.605 270.614C128.223 271.251 129.7 272.201 130.95 273.41L171.51 314.099L268.05 217.43C269.254 216.215 270.687 215.251 272.267 214.593C273.846 213.935 275.539 213.597 277.25 213.597C278.961 213.597 280.654 213.935 282.233 214.593Z" fill="black"/>
</svg>
