<?xml version="1.0" encoding="UTF-8"?>
<svg id="_레이어_1" data-name="레이어 1" xmlns="http://www.w3.org/2000/svg" viewBox="0 0 996.73 554">
  <defs>
    <style>
      .cls-1 {
        fill: #fff;
      }

      .cls-2 {
        fill: #1e88e5;
      }
    </style>
  </defs>
  <g>
    <path class="cls-2" d="m464.3,109.13c-6.31-15.22-15.55-29.06-27.2-40.71-11.65-11.65-25.49-20.89-40.71-27.2-15.1-6.26-31.28-9.49-47.63-9.54h0s-61.09,0-61.09,0H30.51v84.36h172.8v354.9h84.36V116.04h60.87c5.34.02,10.63,1.08,15.57,3.12,4.99,2.07,9.52,5.09,13.34,8.91,3.82,3.82,6.85,8.35,8.91,13.34,2.07,4.99,3.13,10.34,3.13,15.74s-1.07,10.75-3.13,15.74c-2.07,4.99-5.09,9.52-8.91,13.34-3.82,3.82-8.35,6.85-13.34,8.91-4.99,2.07-16.61,3.13-22.01,3.13v84.35c16.48,0,39.07-3.25,54.29-9.55,15.22-6.31,29.06-15.55,40.71-27.2,11.65-11.65,20.89-25.49,27.2-40.71,6.31-15.22,9.55-31.54,9.55-48.02s-3.25-32.79-9.55-48.02Z"/>
    <path class="cls-1" d="m249.67,435.95h-8.36v-16.68h8.36v16.68Zm0-37.59h-8.36v-39.73h8.36v39.73Zm0-60.65h-8.36v-39.73h8.36v39.73Zm0-60.65h-8.36v-39.73h8.36v39.73Zm0-60.65h-8.36v-39.73h8.36v39.73Zm0-60.65h-8.36v-39.73h8.36v39.73Z"/>
    <path class="cls-1" d="m327.46,78.04h-39.73v-8.36h39.73v8.36Zm-60.65,0h-39.73v-8.36h39.73v8.36Zm-60.65,0h-39.73v-8.36h39.73v8.36Zm-60.65,0h-39.73v-8.36h39.73v8.36Zm-60.65,0h-18.82v-8.36h18.82v8.36Z"/>
    <path class="cls-1" d="m368.4,233.33c4.19-.94,8.31-2.19,12.33-3.76l3.07,7.69c-4.51,1.76-9.14,3.16-13.85,4.2l-1.54-8.13Zm34.63-6.32l-4.82-6.76c9.81-6.84,18.06-15.83,23.86-25.98l7.29,4.07c-6.4,11.21-15.5,21.12-26.32,28.67Zm34.57-48.75l-8.09-2.1c1.67-6.28,2.52-12.78,2.52-19.32,0-5.26-.55-10.53-1.64-15.64l8.19-1.7c1.2,5.67,1.82,11.51,1.82,17.34,0,7.25-.94,14.46-2.79,21.42Zm-13.74-55.52c-5.28-10.41-13.09-19.77-22.57-27.06l5.13-6.53c10.46,8.04,19.08,18.38,24.92,29.88l-7.48,3.71Zm-39.6-37.17c-10.95-4.85-22.67-7.31-34.84-7.31v-8.27c13.36,0,26.23,2.7,38.26,8.03l-3.42,7.55Z"/>
  </g>
  <path class="cls-2" d="m343.53,333.16h26.08v21.78h1.52c5.07-14.69,18.87-23.93,34.95-23.8,3.29-.13,8.61.25,11.4.51v25.83c-2.28-.51-8.61-1.65-14.18-1.52-18.74-.13-32.67,12.91-32.67,30.9v83.82h-27.1v-137.51Z"/>
  <path class="cls-2" d="m451.4,279.98c9.24,0,16.97,7.09,16.97,15.95s-7.72,16.08-16.97,15.95c-9.37.13-17.09-7.09-17.22-15.95.13-8.86,7.85-15.95,17.22-15.95Zm-13.67,53.18h27.1v137.51h-27.1v-137.51Z"/>
  <path class="cls-2" d="m497.74,333.16h26.34v22.28h2.28c4.81-8.61,14.06-24.06,39.51-24.06,33.3,0,57.74,26.08,57.74,70.91s-24.18,71.03-57.48,71.16c-24.94-.13-34.82-15.32-39.76-24.31h-1.52v73.19h-27.1v-189.17Zm62.3,117.25c23.8-.13,36.21-21.02,36.21-48.62s-12.03-47.48-36.21-47.36c-23.3-.13-35.71,18.74-35.71,47.36s12.66,48.49,35.71,48.62Z"/>
  <path class="cls-2" d="m677.54,470.66h-27.1v-183.34h27.1v183.34Z"/>
  <path class="cls-2" d="m755.53,390.64c9.12-.51,29.76-1.65,36.09-1.9l-.13-11.02c.13-15.57-9.5-24.56-27.86-24.56-15.95,0-25.58,7.34-28.36,17.47h-26.84c2.41-22.79,23.68-39.25,56.22-39.25,21.91,0,53.81,7.98,53.94,47.86v91.42h-26.34v-18.74h-1.01c-5.32,10.26-17.98,21.78-40.77,21.78-26.08,0-46.47-14.94-46.34-41.78-.13-31.4,26.59-39.5,51.41-41.28Zm1.01,61.54c22.03-.13,35.2-14.81,35.2-31.15l-.13-12.54c-6.2.38-25.83,1.77-32.29,2.15-17.73,1.27-28.87,7.98-28.87,21.53s10.89,19.88,26.08,20.01Z"/>
  <path class="cls-2" d="m878.35,470.66h-27.1v-137.51h26.08v22.54h1.52c6.46-14.81,20.01-24.31,40.52-24.31,28.24,0,46.98,17.85,46.85,51.91v87.37h-26.84v-84.07c-.13-20.01-10.89-31.91-29.12-31.91s-31.91,12.54-31.91,34.44v81.54Z"/>
</svg>