<?xml version="1.0" encoding="UTF-8"?>
<svg id="_레이어_1" data-name="레이어 1" xmlns="http://www.w3.org/2000/svg" viewBox="0 0 500 500">
  <defs>
    <style>
      .cls-1 {
        fill: #fff;
      }

      .cls-2 {
        fill: #1e88e5;
      }
    </style>
  </defs>
  <path class="cls-2" d="m463.12,110.83c-6.31-15.22-15.55-29.06-27.2-40.71-11.65-11.65-25.49-20.89-40.71-27.2-15.1-6.26-31.28-9.49-47.63-9.54h0s-61.09,0-61.09,0H29.33v84.36h172.8v354.9h84.36V117.73h60.87c5.34.02,10.63,1.08,15.57,3.12,4.99,2.07,9.52,5.09,13.34,8.91,3.82,3.82,6.85,8.35,8.91,13.34,2.07,4.99,3.13,10.34,3.13,15.74s-1.07,10.75-3.13,15.74c-2.07,4.99-5.09,9.52-8.91,13.34-3.82,3.82-8.35,6.85-13.34,8.91-4.99,2.07-16.61,3.13-22.01,3.13v84.35c16.48,0,39.07-3.25,54.29-9.55,15.22-6.31,29.06-15.55,40.71-27.2,11.65-11.65,20.89-25.49,27.2-40.71,6.31-15.22,9.55-31.54,9.55-48.02s-3.25-32.79-9.55-48.02Z"/>
  <path class="cls-1" d="m248.49,437.64h-8.36v-16.68h8.36v16.68Zm0-37.59h-8.36v-39.73h8.36v39.73Zm0-60.65h-8.36v-39.73h8.36v39.73Zm0-60.65h-8.36v-39.73h8.36v39.73Zm0-60.65h-8.36v-39.73h8.36v39.73Zm0-60.65h-8.36v-39.73h8.36v39.73Z"/>
  <path class="cls-1" d="m326.28,79.73h-39.73v-8.36h39.73v8.36Zm-60.65,0h-39.73v-8.36h39.73v8.36Zm-60.65,0h-39.73v-8.36h39.73v8.36Zm-60.65,0h-39.73v-8.36h39.73v8.36Zm-60.65,0h-18.82v-8.36h18.82v8.36Z"/>
  <path class="cls-1" d="m367.22,235.02c4.19-.94,8.31-2.19,12.33-3.76l3.07,7.69c-4.51,1.76-9.14,3.16-13.85,4.2l-1.54-8.13Zm34.63-6.32l-4.82-6.76c9.81-6.84,18.06-15.83,23.86-25.98l7.29,4.07c-6.4,11.21-15.5,21.12-26.32,28.67Zm34.57-48.75l-8.09-2.1c1.67-6.28,2.52-12.78,2.52-19.32,0-5.26-.55-10.53-1.64-15.64l8.19-1.7c1.2,5.67,1.82,11.51,1.82,17.34,0,7.25-.94,14.46-2.79,21.42Zm-13.74-55.52c-5.28-10.41-13.09-19.77-22.57-27.06l5.13-6.53c10.46,8.04,19.08,18.38,24.92,29.88l-7.48,3.71Zm-39.6-37.17c-10.95-4.85-22.67-7.31-34.84-7.31v-8.27c13.36,0,26.23,2.7,38.26,8.03l-3.42,7.55Z"/>
</svg>