<svg width="536" height="298" viewBox="0 0 536 298" fill="none" xmlns="http://www.w3.org/2000/svg">
<path d="M249.68 58.7016C246.287 50.5147 241.318 43.07 235.053 36.8034C228.789 30.5368 221.346 25.5666 213.161 22.1724C205.041 18.8051 196.34 17.0677 187.548 17.0408H154.696H16.4062V62.4185H109.331V253.321H154.696V62.4185H187.43C190.301 62.4293 193.146 62.9995 195.802 64.0968C198.486 65.2103 200.922 66.8347 202.976 68.8895C205.03 70.9443 206.66 73.3811 207.768 76.0652C208.881 78.7494 209.451 81.6272 209.451 84.5318C209.451 87.4365 208.875 90.3143 207.768 92.9985C206.654 95.6826 205.03 98.1194 202.976 100.174C200.922 102.229 198.486 103.859 195.802 104.967C193.119 106.08 186.87 106.651 183.966 106.651V152.023C192.829 152.023 204.977 150.275 213.161 146.886C221.346 143.492 228.789 138.521 235.053 132.255C241.318 125.988 246.287 118.544 249.68 110.357C253.074 102.17 254.816 93.3912 254.816 84.5265C254.816 75.6618 253.068 66.8885 249.68 58.6962V58.7016Z" fill="white"/>
<path d="M184.736 179.209H198.761V190.924H199.578C202.305 183.023 209.726 178.052 218.373 178.122C220.142 178.052 223.003 178.257 224.504 178.397V192.291C223.277 192.016 219.873 191.403 216.878 191.473C206.801 191.403 199.31 198.418 199.31 208.094V253.182H184.736V179.214V179.209Z" fill="white"/>
<path d="M242.745 150.603C247.713 150.603 251.87 154.417 251.87 159.183C251.87 163.948 247.719 167.832 242.745 167.762C237.706 167.832 233.554 163.948 233.484 159.183C233.554 154.417 237.706 150.603 242.745 150.603ZM235.393 179.209H249.967V253.176H235.393V179.209Z" fill="white"/>
<path d="M267.664 179.209H281.829V191.193H283.055C285.641 186.562 290.616 178.251 304.302 178.251C322.209 178.251 335.352 192.28 335.352 216.394C335.352 240.509 322.349 254.602 304.441 254.672C291.03 254.602 285.717 246.431 283.06 241.595H282.243V280.965H267.669V179.209H267.664ZM301.166 242.278C313.965 242.208 320.639 230.972 320.639 216.125C320.639 201.279 314.169 190.586 301.166 190.65C288.637 190.58 281.963 200.731 281.963 216.125C281.963 231.52 288.771 242.208 301.166 242.278Z" fill="white"/>
<path d="M364.353 253.171H349.779V154.551H364.353V253.171Z" fill="white"/>
<path d="M406.293 210.128C411.198 209.853 422.297 209.24 425.701 209.106L425.631 203.178C425.701 194.803 420.523 189.967 410.649 189.967C402.072 189.967 396.893 193.915 395.398 199.364H380.965C382.261 187.105 393.699 178.251 411.198 178.251C422.98 178.251 440.135 182.544 440.205 203.996V253.171H426.04V243.091H425.497C422.636 248.61 415.828 254.806 403.572 254.806C389.548 254.806 378.583 246.77 378.653 232.333C378.583 215.442 392.952 211.085 406.299 210.128H406.293ZM406.837 243.231C418.683 243.161 425.766 235.264 425.766 226.475L425.696 219.729C422.362 219.934 411.805 220.682 408.332 220.886C398.797 221.569 392.806 225.178 392.806 232.467C392.806 239.756 398.663 243.161 406.831 243.231H406.837Z" fill="white"/>
<path d="M472.341 253.171H457.768V179.204H471.792V191.328H472.61C476.084 183.362 483.37 178.251 494.4 178.251C509.586 178.251 519.664 187.853 519.594 206.174V253.171H505.16V207.949C505.09 197.186 499.304 190.785 489.501 190.785C479.697 190.785 472.341 197.53 472.341 209.31V253.171Z" fill="white"/>
</svg>
