<svg width="24" height="24" viewBox="0 0 24 24" fill="none" xmlns="http://www.w3.org/2000/svg">
<path fill-rule="evenodd" clip-rule="evenodd" d="M9 11.8402V3.01632L15 4.81632V13.6402L9 11.8402ZM7 1.67229C7 1.00242 7.64574 0.521977 8.28735 0.71446L16.2873 3.11446C16.7103 3.24136 17 3.63068 17 4.07229V14.9842C17 15.6541 16.3543 16.1345 15.7127 15.9421L7.71265 13.5421C7.28967 13.4152 7 13.0258 7 12.5842V1.67229ZM1 15.0329C1 12.8675 2.94762 11.0433 6 10.014V12.5352C4.21334 13.2672 3.2 14.248 3.2 15.0329C3.2 16.217 5.4 17.8037 9.151 18.3721L9.019 18.2418C8.81187 18.0188 8.6955 17.7164 8.6955 17.4011C8.6955 17.0858 8.81187 16.7834 9.019 16.5604C9.22613 16.3374 9.50707 16.2122 9.8 16.2122C10.0929 16.2122 10.3739 16.3374 10.581 16.5604L12.781 18.9286C12.8811 19.0412 12.9596 19.174 13.012 19.3193C13.122 19.6076 13.122 19.931 13.012 20.2193C12.9596 20.3646 12.8811 20.4974 12.781 20.61L10.581 22.9782C10.4787 23.0892 10.3571 23.1773 10.223 23.2374C10.089 23.2975 9.94521 23.3284 9.8 23.3284C9.65479 23.3284 9.51101 23.2975 9.37697 23.2374C9.24292 23.1773 9.12126 23.0892 9.019 22.9782C8.9159 22.8681 8.83407 22.7371 8.77822 22.5929C8.72237 22.4486 8.69362 22.2938 8.69362 22.1375C8.69362 21.9812 8.72237 21.8264 8.77822 21.6821C8.83407 21.5378 8.9159 21.4069 9.019 21.2968L9.481 20.8113C4.509 20.2192 1 17.934 1 15.0329ZM20.8 15.0329C20.8 14.248 19.7867 13.2672 18 12.5352V10.014C21.0524 11.0433 23 12.8675 23 15.0329C23 17.4722 20.624 19.4851 16.609 20.4324C16.4674 20.4654 16.3212 20.468 16.1786 20.44C16.0361 20.412 15.9002 20.354 15.7785 20.2693C15.6569 20.1845 15.552 20.0748 15.4699 19.9463C15.3878 19.8179 15.33 19.6732 15.3 19.5206C15.2696 19.3666 15.268 19.2075 15.2954 19.0528C15.3228 18.8981 15.3786 18.7508 15.4595 18.6196C15.5405 18.4884 15.6449 18.3759 15.7667 18.2886C15.8885 18.2014 16.0253 18.1412 16.169 18.1116C19.205 17.4011 20.8 16.0157 20.8 15.0329Z" fill="white"/>
</svg>
