<svg width="40" height="40" viewBox="0 0 40 40" fill="none" xmlns="http://www.w3.org/2000/svg">
<rect x="0.5" y="0.5" width="39" height="39" rx="19.5" fill="white"/>
<path fill-rule="evenodd" clip-rule="evenodd" d="M28.64 20.1999C28.64 19.5599 28.58 18.9499 28.48 18.3599H20V21.8399H24.84C24.63 22.9599 24 23.9199 23.04 24.5599V26.8199H25.95C27.65 25.2499 28.63 22.9499 28.63 20.1999H28.64Z" fill="#4285F4"/>
<path fill-rule="evenodd" clip-rule="evenodd" d="M20.0009 29C22.4309 29 24.4709 28.19 25.9609 26.82L23.0509 24.56C22.2409 25.1 21.2109 25.42 20.0009 25.42C17.6609 25.42 15.6709 23.84 14.9609 21.71H11.9609V24.04C13.4409 26.98 16.4809 29 20.0009 29Z" fill="#34A853"/>
<path fill-rule="evenodd" clip-rule="evenodd" d="M14.96 21.71C14.78 21.17 14.68 20.59 14.68 20C14.68 19.41 14.78 18.83 14.96 18.29V15.96H11.96C11.35 17.18 11 18.55 11 20C11 21.45 11.35 22.83 11.96 24.04L14.97 21.71H14.96Z" fill="#FBBC05"/>
<path fill-rule="evenodd" clip-rule="evenodd" d="M20.0009 14.5798C21.3209 14.5798 22.5109 15.0298 23.4409 15.9298L26.0209 13.3498C24.4609 11.8998 22.4209 11.0098 20.0009 11.0098C16.4809 10.9998 13.4409 13.0198 11.9609 15.9598L14.9709 18.2898C15.6809 16.1598 17.6609 14.5798 20.0109 14.5798H20.0009Z" fill="#EA4335"/>
<rect x="0.5" y="0.5" width="39" height="39" rx="19.5" stroke="#CFD8DC"/>
</svg>
